<?xml version="1.0" encoding="UTF-8"?>
<svg version="1.1" xmlns="http://www.w3.org/2000/svg" width="512" height="512">
<path d="M0 0 C0.91297852 0.16628906 1.82595703 0.33257812 2.76660156 0.50390625 C44.3986228 8.16363077 83.16052206 26.40624883 116 53 C116.54446777 53.44005371 117.08893555 53.88010742 117.64990234 54.33349609 C131.72173929 65.81174863 144.93680647 78.57719064 156 93 C156.75925781 93.93070312 157.51851563 94.86140625 158.30078125 95.8203125 C184.1596216 128.07168914 200.62794761 167.52514646 208 208 C208.16371094 208.83563477 208.32742188 209.67126953 208.49609375 210.53222656 C213.78656862 238.24163521 213.41678597 270.35093304 208 298 C207.83371094 298.91297852 207.66742188 299.82595703 207.49609375 300.76660156 C199.83636923 342.3986228 181.59375117 381.16052206 155 414 C154.55994629 414.54446777 154.11989258 415.08893555 153.66650391 415.64990234 C142.18825137 429.72173929 129.42280936 442.93680647 115 454 C114.06929688 454.75925781 113.13859375 455.51851563 112.1796875 456.30078125 C79.92831086 482.1596216 40.47485354 498.62794761 0 506 C-0.83563477 506.16371094 -1.67126953 506.32742188 -2.53222656 506.49609375 C-30.24163521 511.78656862 -62.35093304 511.41678597 -90 506 C-90.91297852 505.83371094 -91.82595703 505.66742188 -92.76660156 505.49609375 C-134.3986228 497.83636923 -173.16052206 479.59375117 -206 453 C-206.54446777 452.55994629 -207.08893555 452.11989258 -207.64990234 451.66650391 C-221.72173929 440.18825137 -234.93680647 427.42280936 -246 413 C-246.75925781 412.06929688 -247.51851562 411.13859375 -248.30078125 410.1796875 C-274.1596216 377.92831086 -290.62794761 338.47485354 -298 298 C-298.16371094 297.16436523 -298.32742188 296.32873047 -298.49609375 295.46777344 C-303.78656862 267.75836479 -303.41678597 235.64906696 -298 208 C-297.83371094 207.08702148 -297.66742188 206.17404297 -297.49609375 205.23339844 C-289.83636923 163.6013772 -271.59375117 124.83947794 -245 92 C-244.55994629 91.45553223 -244.11989258 90.91106445 -243.66650391 90.35009766 C-232.18825137 76.27826071 -219.42280936 63.06319353 -205 52 C-204.06929688 51.24074219 -203.13859375 50.48148438 -202.1796875 49.69921875 C-169.92831086 23.8403784 -130.47485354 7.37205239 -90 0 C-89.16436523 -0.16371094 -88.32873047 -0.32742188 -87.46777344 -0.49609375 C-59.75836479 -5.78656862 -27.64906696 -5.41678597 0 0 Z M-204.31396484 87.34472656 C-205.92997251 88.93125016 -207.56539761 90.49475495 -209.20703125 92.0546875 C-216.5819933 99.14082513 -222.88943533 106.81225421 -229 115 C-229.62189209 115.81476807 -229.62189209 115.81476807 -230.25634766 116.64599609 C-266.07347168 163.62136803 -280.5994169 224.26613697 -273.40820312 282.52539062 C-266.77256407 331.33420234 -245.26379353 377.14278485 -210.65527344 412.31396484 C-209.06874984 413.92997251 -207.50524505 415.56539761 -205.9453125 417.20703125 C-198.85917487 424.5819933 -191.18774579 430.88943533 -183 437 C-182.45682129 437.41459473 -181.91364258 437.82918945 -181.35400391 438.25634766 C-134.37863197 474.07347168 -73.73386303 488.5994169 -15.47460938 481.40820312 C33.33420234 474.77256407 79.14278485 453.26379353 114.31396484 418.65527344 C115.92997251 417.06874984 117.56539761 415.50524505 119.20703125 413.9453125 C126.5819933 406.85917487 132.88943533 399.18774579 139 391 C139.41459473 390.45682129 139.82918945 389.91364258 140.25634766 389.35400391 C176.07347168 342.37863197 190.5994169 281.73386303 183.40820312 223.47460938 C176.77256407 174.66579766 155.26379353 128.85721515 120.65527344 93.68603516 C119.06874984 92.07002749 117.50524505 90.43460239 115.9453125 88.79296875 C108.85917487 81.4180067 101.18774579 75.11056467 93 69 C92.45682129 68.58540527 91.91364258 68.17081055 91.35400391 67.74365234 C11.43393131 6.80731413 -101.43651555 9.69279304 -204.31396484 87.34472656 Z " fill="rgb(155, 155, 155)" transform="translate(301,3)"/>
<path d="M0 0 C2.59457559 2.20814944 4.4780441 3.95608819 6 7 C6.10767796 9.54381423 6.15489562 12.06098308 6.15821838 14.60549927 C6.16562535 15.79637628 6.16562535 15.79637628 6.17318195 17.01131141 C6.18860666 19.68608693 6.19693099 22.36083836 6.20532227 25.03564453 C6.21489689 26.94724746 6.22490672 28.85884824 6.23532104 30.77044678 C6.26242127 35.97262815 6.28340308 41.17481864 6.30332303 46.3770318 C6.32515108 51.80897857 6.3525553 57.24089706 6.37937927 62.67282104 C6.42934927 72.96461909 6.47427209 83.25643279 6.51740164 93.54826152 C6.56673726 105.26273488 6.62166899 116.97717989 6.67708123 128.69162583 C6.79096738 152.79439078 6.89779193 176.89718291 7 201 C7.61530075 200.37803741 8.2306015 199.75607483 8.86454773 199.11526489 C14.66832663 193.2513413 20.47932199 187.39468633 26.29851055 181.54605293 C29.28986362 178.53905304 32.27836566 175.52933037 35.26049805 172.51318359 C38.13924779 169.60180581 41.02529291 166.69784667 43.91651344 163.79885483 C45.01752779 162.6923032 46.11590097 161.58311706 47.21155357 160.47125626 C48.74827376 158.91271637 50.29417251 157.36386251 51.8425293 155.81689453 C52.71967087 154.93309113 53.59681244 154.04928772 54.50053406 153.13870239 C57.58069332 150.50312177 60.21401608 149.09174575 64.28125 148.8828125 C69.29374375 149.4299509 72.40104106 150.18292234 76 154 C77.69423447 156.85565314 78.31685187 159.06055635 78.375 162.375 C78.40335938 163.10460937 78.43171875 163.83421875 78.4609375 164.5859375 C77.23078299 171.02861111 71.4648021 175.82168528 67 180.25878906 C65.95537598 181.30867004 65.95537598 181.30867004 64.88964844 182.37976074 C62.59808707 184.68008826 60.29933093 186.97306562 58 189.265625 C56.40074903 190.86622378 54.80179501 192.4671193 53.203125 194.06829834 C49.85740894 197.41695847 46.50811327 200.7619855 43.15625 204.10449219 C38.85864128 208.39068844 34.57009793 212.68582524 30.28417969 216.98370743 C26.98672178 220.28838746 23.68452125 223.5882952 20.38085938 226.88677216 C18.79733425 228.46896272 17.21529456 230.0526414 15.63476562 231.63782501 C13.42797738 233.84968615 11.21489021 236.05504505 9 238.25878906 C8.34741211 238.91542542 7.69482422 239.57206177 7.02246094 240.24859619 C6.41692383 240.84849365 5.81138672 241.44839111 5.1875 242.06646729 C4.66542969 242.58778355 4.14335937 243.10909981 3.60546875 243.64621353 C0.38374594 246.36288101 -2.57172969 247.34032088 -6.75 247.5 C-7.54921875 247.5515625 -8.3484375 247.603125 -9.171875 247.65625 C-16.35198589 245.99014692 -22.14234004 239.14988526 -27.19458008 234.06420898 C-27.86392578 233.39836792 -28.53327148 232.73252686 -29.22290039 232.04650879 C-31.41013141 229.86800328 -33.59005578 227.68235614 -35.76953125 225.49609375 C-37.29761568 223.96935813 -38.82599677 222.44291937 -40.35466003 220.91676331 C-43.54593361 217.72842814 -46.73358723 214.53652926 -49.91870117 211.34204102 C-53.99847275 207.25084665 -58.08719714 203.16873611 -62.17865467 199.08923244 C-65.33153761 195.94357794 -68.47963989 192.79317384 -71.62631798 189.64131355 C-73.13232383 188.13397544 -74.63981154 186.62811634 -76.14881325 185.12377739 C-78.25488689 183.02278822 -80.35443429 180.9154852 -82.45239258 178.80639648 C-83.07423935 178.18859818 -83.69608612 177.57079987 -84.33677673 176.9342804 C-91.5343905 169.66584265 -91.5343905 169.66584265 -92.3984375 164.71875 C-92.33684413 158.88791054 -91.42780212 155.61455613 -87.375 151.25 C-83.77755078 149.35660567 -80.05450667 148.69820824 -76 149 C-71.42090606 150.95788258 -68.31563624 153.31662566 -64.82080078 156.83862305 C-64.10259911 157.5561676 -64.10259911 157.5561676 -63.36988831 158.28820801 C-61.80447006 159.85569993 -60.24992148 161.43351218 -58.6953125 163.01171875 C-57.60595395 164.10667831 -56.51592685 165.20097312 -55.42526245 166.29463196 C-52.56796514 169.16333823 -49.71979555 172.04094093 -46.87347412 174.92053223 C-43.96280687 177.86198567 -41.04354041 180.79487757 -38.125 183.72851562 C-32.40824697 189.47736307 -26.70111459 195.2356438 -21 201 C-20.99761165 200.0047849 -20.99522329 199.0095698 -20.99276257 197.98419666 C-20.93399809 173.78128913 -20.8581342 149.5784814 -20.76428509 125.37568378 C-20.71929746 113.67144482 -20.67988963 101.96723649 -20.65356445 90.26293945 C-20.63060842 80.06284711 -20.59723722 69.86285147 -20.55129844 59.66283578 C-20.52733395 54.26076229 -20.50862631 48.85878477 -20.50238609 43.45665932 C-20.49634986 38.37346688 -20.4764029 33.29052006 -20.44572449 28.20741844 C-20.43692081 26.34058206 -20.43322648 24.47371361 -20.43499184 22.6068573 C-20.43664019 20.05970721 -20.41998313 17.51330979 -20.39872742 14.96626282 C-20.40357499 14.22598306 -20.40842257 13.48570329 -20.41341704 12.72299081 C-20.35257047 8.31074755 -19.70694495 5.51209784 -17 2 C-11.27749837 -2.10846271 -6.59987742 -2.69756894 0 0 Z " fill="rgb(155, 155, 155)" transform="translate(263,133)"/>
</svg>
