<?xml version="1.0" encoding="UTF-8"?>
<svg version="1.1" xmlns="http://www.w3.org/2000/svg" width="512" height="512">
<path d="M0 0 C1.15728178 -0.00226556 2.31456357 -0.00453111 3.5069145 -0.00686532 C7.3523882 -0.01315303 11.19782619 -0.01237934 15.04330444 -0.0115509 C17.81386446 -0.01400472 20.58442203 -0.0179211 23.35498047 -0.02172852 C30.08110599 -0.03000031 36.80722274 -0.03278179 43.53335293 -0.03334089 C49.00678829 -0.03381774 54.48022079 -0.03588087 59.95365524 -0.03904152 C75.50743505 -0.04783889 91.06120799 -0.05246237 106.61499031 -0.05171105 C107.45178319 -0.05167109 108.28857608 -0.05163113 109.15072632 -0.05158997 C109.98855331 -0.05154909 110.8263803 -0.0515082 111.68959598 -0.05146609 C125.25639041 -0.05105995 138.82315704 -0.06062364 152.38994344 -0.07472833 C166.35510547 -0.08913142 180.32025399 -0.09599635 194.28542364 -0.09513456 C202.11173832 -0.09480393 209.93802387 -0.09749188 217.76433182 -0.10831261 C224.42946282 -0.11746957 231.09455147 -0.11955062 237.75968607 -0.11280318 C241.15234377 -0.10956386 244.54485501 -0.11049804 247.93751526 -0.11815643 C288.0709191 -0.20282944 322.83477708 6.95458743 352.64633179 35.50871277 C380.58881389 64.7448283 386.56063702 98.29215865 386.4336338 137.39811134 C386.42334653 141.57003875 386.43294227 145.74193495 386.43917847 149.91386414 C386.44640994 156.91348188 386.43698669 163.91292957 386.41781616 170.91252136 C386.39605612 178.94927017 386.40311071 186.98561274 386.42512178 195.02235174 C386.44340544 201.9827051 386.44577147 208.94293777 386.43536711 215.90330744 C386.42920267 220.034086 386.4280977 224.16467508 386.44151306 228.29544067 C386.55146355 267.54073542 379.30384126 300.5767646 351.14633179 329.32121277 C329.64891234 350.58242888 300.21571829 363.11938663 269.91000366 363.33903503 C269.05052124 363.34893463 268.19103882 363.35883423 267.30551147 363.36903381 C264.492062 363.40037641 261.67859569 363.42529737 258.86508179 363.45011902 C256.90352972 363.47071213 254.94198185 363.49170919 252.98043823 363.51309204 C247.83817974 363.56806938 242.69588282 363.61758518 237.55355835 363.66593933 C232.29799005 363.71633296 227.04247698 363.77192545 221.78695679 363.82707214 C211.49012906 363.93435567 201.19325321 364.03586582 190.89633179 364.13371277 C191.35098816 364.57948669 191.80564453 365.02526062 192.27407837 365.48454285 C197.02318851 370.14485271 201.75791545 374.81942583 206.48471069 379.50236511 C208.24834588 381.24594061 210.01556178 382.98590219 211.78646851 384.72209167 C214.33790994 387.22477032 216.87600109 389.74035526 219.41195679 392.25871277 C220.20064148 393.02675232 220.98932617 393.79479187 221.8019104 394.58610535 C228.09315521 400.87478321 232.93050439 407.52996239 233.20883179 416.75871277 C233.14035558 423.45959841 230.64938646 428.27688293 227.20883179 433.88371277 C220.32424543 440.58222923 214.14192419 441.69006664 204.64242554 441.70011902 C195.90512538 440.37904652 190.47681659 435.29781668 184.4324646 429.18742371 C183.2260305 427.99150352 183.2260305 427.99150352 181.995224 426.77142334 C179.35318574 424.14691491 176.72596169 421.50813453 174.09945679 418.86808777 C172.26017679 417.03150409 170.42030351 415.19551439 168.5798645 413.36009216 C164.73040609 409.51652208 160.88806806 405.66603345 157.05111694 401.8099823 C152.62783227 397.36493246 148.19032266 392.93447554 143.7451508 388.51132178 C139.45276445 384.23934012 135.17179127 379.95612393 130.89543915 375.66808319 C129.08194059 373.85192221 127.26548223 372.03871159 125.44599152 370.22855377 C122.90171215 367.69446769 120.37066498 365.14784935 117.84262085 362.59757996 C117.09345901 361.85651505 116.34429718 361.11545013 115.57243347 360.35192871 C109.85425982 354.54059336 105.51810127 348.54244292 104.86508179 340.20011902 C105.04295903 328.43798649 111.80606167 320.77059178 119.77255249 312.85343933 C120.5504715 312.06865707 121.3283905 311.28387482 122.12988281 310.47531128 C124.68636297 307.90062937 127.25367093 305.33708287 129.82211304 302.77433777 C131.61220761 300.97967894 133.40193073 299.18464952 135.19129944 297.38926697 C138.936192 293.63545678 142.6865677 289.88724056 146.44100952 286.14299011 C150.76817123 281.82731588 155.08238255 277.49900135 159.39038974 273.16421342 C163.55305662 268.97665076 167.72690943 264.80036975 171.9052639 260.62845612 C173.67411964 258.85975345 175.43988537 257.08795476 177.20244789 255.31298065 C179.66944595 252.83106148 182.14891437 250.36229135 184.63192749 247.89640808 C185.35271988 247.16594772 186.07351227 246.43548737 186.81614685 245.68289185 C192.14021346 240.43522423 197.15220507 236.6597471 204.67758179 235.60246277 C213.0803175 235.67307399 219.29768922 235.87258526 225.59945679 241.71183777 C231.49128632 248.06128513 233.20796982 254.25611156 233.49008179 262.77824402 C231.81927184 272.22051864 226.00391498 278.73474253 219.31430054 285.20402527 C218.50012161 286.01112946 217.68594269 286.81823364 216.84709167 287.64979553 C214.2709412 290.19819459 211.67787896 292.72854651 209.08383179 295.25871277 C207.32291365 296.99452353 205.56313612 298.7314922 203.80453491 300.46965027 C199.51489349 304.70447784 195.21126713 308.92466865 190.89633179 313.13371277 C201.70254914 313.22696096 212.5086686 313.29775319 223.31520844 313.34096146 C228.33474581 313.36171373 233.35400514 313.38980154 238.37338257 313.43547058 C243.22989073 313.47937425 248.0861338 313.50294244 252.94282532 313.51322174 C254.78292506 313.52053412 256.62301258 313.5348098 258.46299744 313.556633 C280.7235747 313.80982184 300.31691747 309.05416786 316.89633179 293.13371277 C322.10267784 287.7871599 325.81016055 281.85161801 329.20883179 275.25871277 C329.53456177 274.63537048 329.86029175 274.0120282 330.19589233 273.36979675 C335.35662581 262.83760545 336.34054577 252.19159998 336.30038452 240.60710144 C336.30610225 239.19125841 336.31307187 237.77541997 336.32118225 236.35958862 C336.33897675 232.54942855 336.33797111 228.73950049 336.33223987 224.92931151 C336.32912718 221.73148933 336.33526357 218.53371039 336.34127861 215.33589441 C336.35527802 207.78205369 336.35380169 200.22832618 336.34237671 192.67448425 C336.33090735 184.92069344 336.34496165 177.16724901 336.37177318 169.41350383 C336.39403601 162.72091391 336.40054368 156.02843188 336.39469677 149.33580762 C336.39135026 145.35428235 336.39358631 141.37297881 336.4109478 137.39148521 C336.4265844 133.64262098 336.42227983 129.89426358 336.40364265 126.14541817 C336.39828775 124.14095864 336.41234369 122.13647542 336.42733765 120.13206482 C336.28072845 101.76898196 330.10090449 85.89989418 317.89633179 72.13371277 C317.36523804 71.50851746 316.83414429 70.88332214 316.28695679 70.23918152 C304.42177756 57.22860133 286.1474593 51.03416607 268.94576693 49.9472822 C265.88863147 49.87595965 262.83714996 49.86210493 259.77920532 49.87301636 C258.62051241 49.86919081 257.46181949 49.86536526 256.26801467 49.86142379 C252.41783612 49.85117407 248.56780895 49.85507065 244.71762085 49.85905457 C241.94381281 49.85579428 239.17001297 49.84958294 236.39620972 49.84356689 C229.66272555 49.83086458 222.92928135 49.82902065 216.19578722 49.83136716 C210.71756408 49.8331557 205.23935299 49.83138921 199.76113129 49.82714272 C198.97917414 49.82654753 198.19721699 49.82595234 197.39156418 49.82533911 C195.80260628 49.82412726 194.21364839 49.82291313 192.6246905 49.82169674 C177.74699137 49.81083814 162.86931495 49.81297556 147.99161455 49.81908158 C134.41051922 49.82424771 120.82949568 49.81300032 107.24841455 49.79398336 C93.27195724 49.77456426 79.29553382 49.76635618 65.31906295 49.77010661 C57.48497514 49.77201269 49.65094838 49.76958943 41.81687164 49.75539207 C35.1465403 49.74342515 28.47630759 49.74213237 21.80597475 49.75418224 C18.40945714 49.76003437 15.01326571 49.75961787 11.61673737 49.74917984 C-14.96596184 49.67341609 -36.7957064 51.93464559 -57.22866821 70.75871277 C-68.5250251 82.65816058 -76.19744671 98.62433205 -76.24411011 115.19696045 C-76.24982025 116.41495834 -76.2555304 117.63295624 -76.26141357 118.88786316 C-76.26265879 120.22965993 -76.26378391 121.57145682 -76.26480103 122.91325378 C-76.26943286 124.33292773 -76.27445801 125.75260045 -76.27984619 127.17227173 C-76.2929409 131.02389775 -76.29940994 134.87550636 -76.30385685 138.72715116 C-76.30679356 141.13790636 -76.31089959 143.54865688 -76.31536102 145.95940971 C-76.32903101 153.51461119 -76.33869894 161.06980186 -76.34256291 168.62501484 C-76.34703634 177.32242118 -76.36455298 186.01966979 -76.39356351 194.7170282 C-76.41524956 201.45441903 -76.42527095 208.19176572 -76.42660403 214.92919105 C-76.42764753 218.94591371 -76.43345703 222.96248801 -76.45142365 226.97917366 C-76.46802355 230.76395279 -76.47000275 234.54847396 -76.46128464 238.33327675 C-76.46015925 240.36582456 -76.47378593 242.39836427 -76.48803711 244.43086243 C-76.43854145 255.43120639 -74.57176936 265.39619907 -69.47866821 275.19621277 C-68.9570813 276.20953674 -68.9570813 276.20953674 -68.42495728 277.24333191 C-59.86370772 293.30999449 -46.03280449 304.20881426 -28.9425354 310.25138855 C-15.80437074 314.01679306 -2.68032574 313.70267872 10.89633179 313.69621277 C14.48718198 313.69983404 18.07755388 313.70944731 21.66830444 313.73696899 C23.88536555 313.75361874 26.10258488 313.75674374 28.31967163 313.74395752 C37.01706115 313.80329973 43.79582994 315.38045651 50.35726929 321.38761902 C54.57699561 326.1749735 56.56901715 331.92602931 57.20883179 338.19621277 C56.62356929 345.57052023 54.64318521 352.03853837 49.08383179 357.13371277 C41.64842517 363.26600688 34.67501212 363.58107136 25.37680054 363.53215027 C24.16422073 363.53502045 22.95164093 363.53789062 21.70231628 363.54084778 C19.13620538 363.54288584 16.57007884 363.53737412 14.0039978 363.52482605 C10.13505886 363.50892333 6.26718929 363.52460476 2.39828491 363.54386902 C-33.06227944 363.57460261 -63.94159843 355.24594027 -90.10366821 330.13371277 C-90.93769165 329.36285339 -91.77171509 328.59199402 -92.63101196 327.79777527 C-105.45400993 315.58727798 -114.70922805 299.90099643 -120.41616821 283.19621277 C-120.64650757 282.53017029 -120.87684692 281.86412781 -121.11416626 281.17790222 C-125.18315517 268.50804133 -126.55510069 255.83245575 -126.50772095 242.58976746 C-126.5134447 241.11248261 -126.52041656 239.63520218 -126.52851868 238.15792847 C-126.5462478 234.19685015 -126.54532007 230.23599579 -126.53957629 226.27488995 C-126.53645363 222.94313141 -126.54261088 219.61141403 -126.54861504 216.27966142 C-126.56259332 208.40529244 -126.56115624 200.53103209 -126.54971313 192.65666199 C-126.53824875 184.59047171 -126.55229467 176.5246146 -126.57910961 168.4584682 C-126.60141797 161.48122183 -126.60786995 154.50407886 -126.6020332 147.52679944 C-126.59869706 143.38253365 -126.60085108 139.23848098 -126.61828423 135.09424591 C-126.69680051 114.48276555 -126.73233824 94.12729446 -118.41616821 74.82121277 C-118.07368042 74.00128845 -117.73119263 73.18136414 -117.37832642 72.33659363 C-111.62165892 58.96253079 -103.8853151 47.85392847 -94.10366821 37.13371277 C-93.46042603 36.40797058 -92.81718384 35.68222839 -92.15444946 34.93449402 C-68.32017325 9.44577781 -33.85482014 -0.04956304 0 0 Z " fill="#ffffff" transform="translate(126.10366821289063,34.86628723144531)"/>
</svg>
