<?xml version="1.0" encoding="UTF-8"?>
<svg version="1.1" xmlns="http://www.w3.org/2000/svg" width="512" height="512">
<path d="M0 0 C3.39713185 1.81045682 6.67769876 3.76455809 9.94433594 5.79638672 C11.16637546 6.52935569 12.39004448 7.25961394 13.61523438 7.98730469 C16.13030214 9.48474339 18.63721794 10.99458417 21.13867188 12.51464844 C25.66520464 15.25661133 30.25405045 17.88702744 34.84741211 20.51513672 C38.05177812 22.34883924 41.24689508 24.19780251 44.44042969 26.05029297 C48.81424671 28.58385297 53.20390018 31.08698858 57.60449219 33.57373047 C59.78031438 34.81454409 61.9560971 36.05542694 64.13183594 37.29638672 C65.1344043 37.85600098 66.13697266 38.41561523 67.16992188 38.9921875 C73.36018883 42.54308553 78.46344563 45.66621579 80.81933594 52.73388672 C81.38317722 58.4265151 81.126535 62.8833281 77.81933594 67.73388672 C72.524222 72.71650213 66.37232304 76.04701816 60.06933594 79.60888672 C58.32348502 80.60584782 56.57763889 81.60281745 54.83209229 82.60031128 C53.02549499 83.63169991 51.21748539 84.66057493 49.40917969 85.68896484 C43.78341693 88.89056289 38.1765272 92.12490902 32.56933594 95.35888672 C31.50408691 95.97183594 30.43883789 96.58478516 29.34130859 97.21630859 C24.01776607 100.28524114 18.71297449 103.38146633 13.43652344 106.53076172 C12.4262207 107.1332373 11.41591797 107.73571289 10.375 108.35644531 C8.47048043 109.49528582 6.56862503 110.63859781 4.66992188 111.78710938 C3.82461914 112.29290527 2.97931641 112.79870117 2.10839844 113.31982422 C1.37314941 113.76374512 0.63790039 114.20766602 -0.11962891 114.66503906 C-4.40208369 116.88590936 -8.38937162 117.06432068 -13.18066406 116.73388672 C-18.54552825 114.87260731 -22.35041368 111.62499903 -25.18066406 106.73388672 C-26.74869009 101.63987624 -26.77197234 97.23658158 -24.55566406 92.35888672 C-21.20338542 86.05660287 -14.32569819 82.91958117 -8.36816406 79.48388672 C-7.57990234 79.02498047 -6.79164063 78.56607422 -5.97949219 78.09326172 C-4.04861602 76.96984286 -2.11566881 75.85017428 -0.18066406 74.73388672 C-25.27389454 73.928425 -47.30660723 76.90202679 -69.49316406 89.04638672 C-70.10256836 89.37662842 -70.71197266 89.70687012 -71.33984375 90.04711914 C-81.77559998 96.03806782 -90.40156866 104.6646867 -98.80175781 113.15966797 C-99.80969883 114.17146014 -100.81810563 115.18278847 -101.82693481 116.19369507 C-103.97681816 118.34983863 -106.12357024 120.50903238 -108.26785278 122.67074585 C-111.66862137 126.09886886 -115.07728289 129.51907342 -118.48706055 132.93823242 C-125.72425106 140.1974966 -132.95291563 147.46522322 -140.18066406 154.73388672 C-147.98736096 162.58477601 -155.79557373 170.43412282 -163.61363697 178.27369595 C-166.99292262 181.66285848 -170.36729295 185.05681302 -173.73779297 188.45471191 C-175.84596685 190.57795552 -177.95841239 192.69691137 -180.07195663 194.81480789 C-181.4961798 196.24447276 -182.91534079 197.67917517 -184.33425903 199.11410522 C-213.56831263 228.35287318 -250.20661736 244.63429788 -291.71972656 244.97216797 C-292.68542572 244.98023972 -293.65112488 244.98831146 -294.64608765 244.99662781 C-296.67126732 245.0103542 -298.69646901 245.02112659 -300.72167969 245.02905273 C-302.78131957 245.04062924 -304.84092815 245.06116921 -306.90039062 245.09057617 C-309.90287296 245.13332548 -312.90447749 245.14942359 -315.90722656 245.15966797 C-316.8188858 245.17717606 -317.73054504 245.19468414 -318.66983032 245.21272278 C-324.65482048 245.19255177 -329.19488788 244.15520716 -334.18066406 240.73388672 C-338.91024409 235.64049284 -339.53300688 232.29385636 -339.46191406 225.49560547 C-338.93747051 220.34586115 -336.30022064 217.72016275 -332.55566406 214.42138672 C-329.41571705 212.19037174 -327.80451037 211.60861294 -324.01660156 211.57617188 C-323.15389648 211.56590973 -322.29119141 211.55564758 -321.40234375 211.54507446 C-320.46293945 211.53777313 -319.52353516 211.5304718 -318.55566406 211.52294922 C-316.54784424 211.494821 -314.54003188 211.46615638 -312.53222656 211.43701172 C-309.38216854 211.39621541 -306.23224084 211.3593256 -303.08203125 211.33251953 C-286.77058649 211.18182444 -270.53164775 210.55948238 -254.99316406 205.04638672 C-254.25888184 204.79219971 -253.52459961 204.5380127 -252.76806641 204.27612305 C-224.94931142 194.24996766 -205.39932024 172.1231793 -185.08918762 151.62587929 C-181.95450805 148.46278562 -178.81392398 145.3055959 -175.67224121 142.14945984 C-174.58615072 141.05822886 -173.50006832 139.96698982 -172.41399384 138.87574291 C-171.87101874 138.33018226 -171.32804365 137.78462161 -170.76861477 137.22252882 C-163.48270963 129.90089228 -156.20185505 122.57428306 -148.93115234 115.23754883 C-143.98774038 110.24933731 -139.03698404 105.2685371 -134.07813311 100.29567212 C-131.47062113 97.68017984 -128.86679948 95.06125668 -126.2721405 92.43300819 C-112.33575613 78.32141668 -98.75507168 65.4856486 -80.93066406 56.42138672 C-79.95613281 55.9206665 -78.98160156 55.41994629 -77.97753906 54.90405273 C-57.34332017 44.59869781 -35.48337408 40.94326155 -12.61816406 40.17138672 C-11.41869141 40.12820312 -10.21921875 40.08501953 -8.98339844 40.04052734 C-6.04924613 39.9353187 -3.11502156 39.83317789 -0.18066406 39.73388672 C-0.76557617 39.39655518 -1.35048828 39.05922363 -1.953125 38.71166992 C-4.61838512 37.16680227 -7.27447994 35.60680343 -9.93066406 34.04638672 C-10.85105469 33.5159375 -11.77144531 32.98548828 -12.71972656 32.43896484 C-18.33411659 29.12322001 -22.10016414 26.20138658 -25.49316406 20.54638672 C-26.74176961 15.43845495 -26.65075267 10.20363557 -23.91113281 5.60107422 C-17.60737974 -2.02726494 -9.31770006 -3.70905684 0 0 Z " fill="#ffffff" transform="translate(387.1806640625,113.26611328125)"/>
<path d="M0 0 C7.92158187 5.27013535 14.23528032 12.20540963 20.76953125 19.04711914 C30.29180117 28.98051771 40.29118273 37.31662429 52.81201172 43.32763672 C53.48143799 43.65207764 54.15086426 43.97651855 54.84057617 44.31079102 C73.69111051 53.2208649 93.25363414 55.80955178 113.93701172 55.07763672 C113.32180664 54.74030518 112.70660156 54.40297363 112.07275391 54.05541992 C109.27132237 52.51125099 106.4792191 50.95091843 103.68701172 49.39013672 C102.71892578 48.8596875 101.75083984 48.32923828 100.75341797 47.78271484 C94.77086039 44.4201049 90.65156164 41.67002704 87.62451172 35.32763672 C86.39147249 29.49872398 86.8000576 24.29473012 90.06201172 19.20263672 C93.647255 14.76229231 97.83558376 13.30278971 103.43701172 12.70263672 C111.98760816 13.61877205 119.44796085 19.10561374 126.74951172 23.32763672 C127.9942881 24.04384794 129.23924563 24.75974441 130.484375 25.4753418 C133.04653498 26.94878705 135.60732371 28.42457463 138.16699219 29.90234375 C141.70329261 31.94375714 145.24359109 33.97811327 148.78466797 36.01123047 C153.09161352 38.48511394 157.39175889 40.97023099 161.68701172 43.46435547 C165.87709069 45.89656537 170.08634145 48.28988398 174.31201172 50.65966797 C176.31218506 51.79868655 178.31219275 52.93799608 180.31201172 54.07763672 C181.22772949 54.58125732 182.14344727 55.08487793 183.08691406 55.60375977 C188.56115522 58.75418816 191.48021452 61.19337312 193.93701172 67.07763672 C194.50341797 69.66748047 194.50341797 69.66748047 194.49951172 72.01513672 C194.52142578 72.78728516 194.54333984 73.55943359 194.56591797 74.35498047 C193.36343494 79.56076104 190.97065065 83.52510701 186.69555664 86.78881836 C183.92788191 88.50896784 181.11506488 90.08851868 178.24951172 91.64013672 C176.07624681 92.86133461 173.9030728 94.08269426 171.72998047 95.30419922 C170.60769043 95.92584961 169.48540039 96.5475 168.32910156 97.18798828 C162.8680648 100.23019532 157.46931779 103.37877598 152.06201172 106.51513672 C149.90618528 107.75805917 147.74993144 109.00024058 145.59326172 110.24169922 C140.94465462 112.91921934 136.29920608 115.60211766 131.65576172 118.28857422 C129.86868209 119.32187418 128.08154038 120.35506668 126.29437256 121.38821411 C124.59945405 122.36848169 122.90518827 123.3498776 121.2109375 124.33129883 C120.18468262 124.92434814 119.15842773 125.51739746 118.10107422 126.12841797 C117.19824707 126.65089111 116.29541992 127.17336426 115.36523438 127.71166992 C109.6148567 130.94647417 105.58116775 131.896639 98.93701172 131.07763672 C94.95021772 129.75121754 92.3473027 127.54191336 89.56201172 124.39013672 C86.82878265 118.81855438 86.27253282 114.29256639 88.06201172 108.32763672 C91.99369333 101.51272192 97.51143407 98.35487817 104.24951172 94.76513672 C105.08546875 94.31074219 105.92142578 93.85634766 106.78271484 93.38818359 C108.8300493 92.27677346 110.88136703 91.17357642 112.93701172 90.07763672 C112.17783447 90.03276123 111.41865723 89.98788574 110.63647461 89.94165039 C61.10098069 86.93211709 26.60796859 72.64792123 -9.06298828 38.07763672 C-9.61100098 37.55153809 -10.15901367 37.02543945 -10.72363281 36.48339844 C-23.58075658 24.12866961 -23.58075658 24.12866961 -24.15673828 14.53857422 C-23.98855874 10.12386129 -22.68979223 6.78422941 -19.62939453 3.57373047 C-14.18327031 -1.19332589 -6.84978157 -3.06254139 0 0 Z " fill="#ffffff" transform="translate(274.06298828125,268.92236328125)"/>
<path d="M0 0 C1.30098381 -0.00429771 1.30098381 -0.00429771 2.62825012 -0.00868225 C5.42812218 -0.01304427 8.22751933 -0.0005422 11.02734375 0.015625 C11.97957825 0.01905914 12.93181274 0.02249329 13.91290283 0.02603149 C53.14111923 0.19295126 90.20315564 7.069125 120.96484375 33.265625 C121.73957031 33.91273438 122.51429688 34.55984375 123.3125 35.2265625 C125.93457418 37.50232499 128.46033565 39.86259139 130.96484375 42.265625 C131.70702148 42.97525391 132.44919922 43.68488281 133.21386719 44.41601562 C135.81162355 46.91428345 138.39029105 49.43096284 140.96484375 51.953125 C141.8151416 52.77353271 142.66543945 53.59394043 143.54150391 54.43920898 C144.34120605 55.23141846 145.1409082 56.02362793 145.96484375 56.83984375 C146.68671875 57.54713623 147.40859375 58.25442871 148.15234375 58.9831543 C151.28161748 62.9238305 152.36184219 67.16394092 152.02734375 72.140625 C151.31834055 77.92644122 148.36605699 81.58513445 143.96484375 85.265625 C140.99921825 86.25416683 138.81998682 86.49572595 135.71484375 86.578125 C134.8021875 86.61550781 133.88953125 86.65289062 132.94921875 86.69140625 C124.1423457 85.43492829 118.79557604 78.29613937 112.96484375 72.203125 C89.72712567 48.43135793 62.00300624 34.59255782 28.29670715 34.0280304 C21.75082613 33.95405656 15.20525859 33.89615301 8.65893555 33.88476562 C5.39724274 33.87524174 2.13648294 33.84151128 -1.125 33.8046875 C-2.11676743 33.80973297 -3.10853485 33.81477844 -4.13035583 33.81997681 C-10.29829475 33.73251092 -14.01108358 32.92167328 -19.03515625 29.265625 C-22.80059964 24.43813348 -23.63281276 20.72122971 -23.35546875 14.62890625 C-22.7282456 10.00122323 -21.02668989 7.23036043 -17.72265625 4.015625 C-11.97857524 0.27529318 -6.63776658 -0.03187222 0 0 Z " fill="#ffffff" transform="translate(71.03515625,153.734375)"/>
</svg>
