<?xml version="1.0" encoding="UTF-8"?>
<svg version="1.1" xmlns="http://www.w3.org/2000/svg" width="512" height="512">
<path d="M0 0 C1.45108658 0.00273422 1.45108658 0.00273422 2.93148804 0.00552368 C17.26440977 0.05095174 31.21023917 0.55983928 45.3125 3.3125 C46.65803955 3.55395752 46.65803955 3.55395752 48.03076172 3.80029297 C107.84088904 14.62287989 165.35495829 48.68064457 202.3125 97.3125 C202.72918945 97.85277832 203.14587891 98.39305664 203.57519531 98.94970703 C211.2584873 108.9447116 218.00092968 119.40459036 224.3125 130.3125 C224.70679199 130.98974121 225.10108398 131.66698242 225.50732422 132.36474609 C238.68961173 155.2833756 247.29510918 180.85822563 252.625 206.6875 C252.77243652 207.39817627 252.91987305 208.10885254 253.07177734 208.84106445 C256.05713787 224.48358366 256.6873098 240.11919606 256.625 256 C256.62226578 257.45108658 256.62226578 257.45108658 256.61947632 258.93148804 C256.57404826 273.26440977 256.06516072 287.21023917 253.3125 301.3125 C253.15152832 302.20952637 252.99055664 303.10655273 252.82470703 304.03076172 C242.00212011 363.84088904 207.94435543 421.35495829 159.3125 458.3125 C158.77222168 458.72918945 158.23194336 459.14587891 157.67529297 459.57519531 C147.6802884 467.2584873 137.22040964 474.00092968 126.3125 480.3125 C125.63525879 480.70679199 124.95801758 481.10108398 124.26025391 481.50732422 C101.3416244 494.68961173 75.76677437 503.29510918 49.9375 508.625 C49.22682373 508.77243652 48.51614746 508.91987305 47.78393555 509.07177734 C32.14141634 512.05713787 16.50580394 512.6873098 0.625 512.625 C-0.34239105 512.62317719 -1.3097821 512.62135437 -2.30648804 512.61947632 C-16.63940977 512.57404826 -30.58523917 512.06516072 -44.6875 509.3125 C-45.58452637 509.15152832 -46.48155273 508.99055664 -47.40576172 508.82470703 C-107.21588904 498.00212011 -164.72995829 463.94435543 -201.6875 415.3125 C-202.10418945 414.77222168 -202.52087891 414.23194336 -202.95019531 413.67529297 C-210.6334873 403.6802884 -217.37592968 393.22040964 -223.6875 382.3125 C-224.08179199 381.63525879 -224.47608398 380.95801758 -224.88232422 380.26025391 C-238.06461173 357.3416244 -246.67010918 331.76677437 -252 305.9375 C-252.14743652 305.22682373 -252.29487305 304.51614746 -252.44677734 303.78393555 C-255.43213787 288.14141634 -256.0623098 272.50580394 -256 256.625 C-255.99817719 255.65760895 -255.99635437 254.6902179 -255.99447632 253.69351196 C-255.94904826 239.36059023 -255.44016072 225.41476083 -252.6875 211.3125 C-252.44604248 209.96696045 -252.44604248 209.96696045 -252.19970703 208.59423828 C-241.37712011 148.78411096 -207.31935543 91.27004171 -158.6875 54.3125 C-158.14722168 53.89581055 -157.60694336 53.47912109 -157.05029297 53.04980469 C-147.0552884 45.3665127 -136.59540964 38.62407032 -125.6875 32.3125 C-125.01025879 31.91820801 -124.33301758 31.52391602 -123.63525391 31.11767578 C-100.7166244 17.93538827 -75.14177437 9.32989082 -49.3125 4 C-48.60182373 3.85256348 -47.89114746 3.70512695 -47.15893555 3.55322266 C-31.51641634 0.56786213 -15.88080394 -0.0623098 0 0 Z M-123.6875 81.3125 C-124.76905229 82.11002495 -125.85109854 82.90688037 -126.93359375 83.703125 C-136.54205271 90.85363895 -145.22598759 98.83707063 -153.6875 107.3125 C-154.2753125 107.85390625 -154.863125 108.3953125 -155.46875 108.953125 C-162.86532066 115.8790048 -168.67849398 124.1992204 -174.6875 132.3125 C-175.37199219 133.22386719 -176.05648437 134.13523437 -176.76171875 135.07421875 C-208.77628328 179.0289472 -220.13666344 236.53719456 -212 289.75 C-210.11836907 301.22444797 -207.31659313 312.27246263 -203.6875 323.3125 C-203.42598145 324.11349121 -203.16446289 324.91448242 -202.89501953 325.73974609 C-192.45015498 357.13830095 -174.4144849 384.5855151 -151.078125 407.921875 C-149.71073662 409.28926338 -148.35696352 410.67136818 -147.046875 412.09375 C-140.1209952 419.49032066 -131.8007796 425.30349398 -123.6875 431.3125 C-122.77613281 431.99699219 -121.86476563 432.68148438 -120.92578125 433.38671875 C-77.11022754 465.29991491 -19.33977793 476.7665045 33.6875 468.625 C66.10089356 463.27807788 97.99238618 451.29169811 124.3125 431.3125 C125.39405229 430.51497505 126.47609854 429.71811963 127.55859375 428.921875 C137.16705271 421.77136105 145.85098759 413.78792937 154.3125 405.3125 C154.9003125 404.77109375 155.488125 404.2296875 156.09375 403.671875 C163.49032066 396.7459952 169.30349398 388.4257796 175.3125 380.3125 C175.99699219 379.40113281 176.68148438 378.48976563 177.38671875 377.55078125 C209.29991491 333.73522754 220.7665045 275.96477793 212.625 222.9375 C207.27807788 190.52410644 195.29169811 158.63261382 175.3125 132.3125 C174.51497505 131.23094771 173.71811963 130.14890146 172.921875 129.06640625 C165.77136105 119.45794729 157.78792937 110.77401241 149.3125 102.3125 C148.77109375 101.7246875 148.2296875 101.136875 147.671875 100.53125 C140.7459952 93.13467934 132.4257796 87.32150602 124.3125 81.3125 C122.94544922 80.28576172 122.94544922 80.28576172 121.55078125 79.23828125 C51.15499218 27.96528717 -54.27015129 28.61884633 -123.6875 81.3125 Z " fill="#ffffff" transform="translate(255.6875,-0.3125)"/>
<path d="M0 0 C6.08631191 3.72903137 11.41216052 9.73969391 13.5625 16.5625 C14.44166785 21.65735994 14.70706283 26.62727971 14.69621277 31.78463745 C14.69847833 32.5846446 14.70074388 33.38465174 14.70307809 34.20890152 C14.70938026 36.87479692 14.70859117 39.54064098 14.70776367 42.20654297 C14.7107575 44.12398341 14.71416054 46.04142325 14.71794128 47.9588623 C14.72676207 53.15723663 14.72911857 58.35559449 14.72975707 63.55397558 C14.73046859 66.80394124 14.73260482 70.05390272 14.73525429 73.30386734 C14.74450087 84.64805619 14.74858997 95.99223329 14.74780273 107.33642578 C14.74720191 117.90133856 14.7577565 128.46620029 14.7735464 139.03110015 C14.78663162 148.11071477 14.79198623 157.19031271 14.79134732 166.26993668 C14.79109266 171.68880454 14.79392681 177.107627 14.80452538 182.52648544 C14.81422303 187.62365266 14.81427408 192.72073122 14.80700874 197.81790161 C14.80596503 199.68469497 14.80831312 201.55149391 14.8143692 203.41827774 C14.82212224 205.97442022 14.81742259 208.53025901 14.80973816 211.08639526 C14.81488172 211.81803072 14.82002529 212.54966617 14.82532471 213.3034724 C14.76288987 222.7573348 12.74655004 231.04907661 6.1484375 238.06640625 C-0.44660456 243.97373002 -6.5247931 245.20647815 -15.15234375 244.96875 C-23.36638236 243.95298304 -29.02423002 239.84110603 -34.1015625 233.4765625 C-38.53165274 227.12935718 -38.58678883 219.89602697 -38.57121277 212.38468933 C-38.57347833 211.57736951 -38.57574388 210.77004968 -38.57807809 209.93826562 C-38.58439216 207.24162529 -38.58359039 204.54503556 -38.58276367 201.84838867 C-38.58575678 199.91139155 -38.58915967 197.97439503 -38.59294128 196.03739929 C-38.6017701 190.78111639 -38.60411893 185.52484977 -38.60475707 180.26856017 C-38.60546822 176.98292036 -38.60760377 173.69728468 -38.61025429 170.41164589 C-38.61950407 158.94426842 -38.62358964 147.47690256 -38.62280273 136.00952148 C-38.62220207 125.32818216 -38.63275271 114.64689336 -38.6485464 103.96556681 C-38.66163152 94.78830865 -38.66698622 85.61106698 -38.66634732 76.43379956 C-38.66609262 70.95567219 -38.66892868 65.47758973 -38.67952538 59.99947166 C-38.68922265 54.84568448 -38.68927433 49.69198498 -38.68200874 44.53819466 C-38.68096493 42.65043891 -38.68331372 40.76267766 -38.6893692 38.87493134 C-38.69712092 36.29027255 -38.69242341 33.70591421 -38.68473816 31.1212616 C-38.68988172 30.38116213 -38.69502529 29.64106265 -38.70032471 28.87853593 C-38.6446502 20.35651247 -37.18448369 12.12260609 -31.4375 5.5625 C-22.7695467 -1.44498421 -10.72733405 -4.72002698 0 0 Z " fill="#ffffff" transform="translate(220.4375,132.4375)"/>
<path d="M0 0 C6.21272472 4.77305589 9.37852879 10.13105957 11.19140625 17.68359375 C11.4599865 20.52672799 11.47036473 23.34836838 11.45883179 26.20271301 C11.4633629 27.03468301 11.46789401 27.86665301 11.47256243 28.72383422 C11.48517311 31.49799426 11.48358822 34.27195714 11.48193359 37.04614258 C11.48792091 39.04077912 11.49472693 41.03541336 11.50228882 43.03004456 C11.51993501 48.43923231 11.52464361 53.84835675 11.52592039 59.25757051 C11.5273433 62.63954655 11.53161554 66.02150656 11.53691483 69.40347862 C11.55541034 81.20918167 11.56358601 93.01483959 11.56201172 104.82055664 C11.56081036 115.81381028 11.58191286 126.80686758 11.61349905 137.80007154 C11.63967576 147.24828316 11.65037843 156.6964307 11.6491009 166.14467829 C11.64859169 171.78328304 11.65425233 177.42171323 11.675457 183.06028175 C11.69486284 188.36518936 11.69494766 193.6697563 11.68042374 198.97467613 C11.67833749 200.91684341 11.68302552 202.85903214 11.69514465 204.80116272 C11.8201226 226.22408216 11.8201226 226.22408216 4.75390625 234.55859375 C3.90828125 235.25984375 3.06265625 235.96109375 2.19140625 236.68359375 C1.38703125 237.40546875 0.58265625 238.12734375 -0.24609375 238.87109375 C-6.57830256 243.34997316 -13.29719103 243.30706986 -20.80859375 242.68359375 C-27.55954175 241.32426581 -33.1013661 237.47371246 -37.09765625 231.87890625 C-40.60325385 226.00261674 -40.95825302 221.11617532 -40.9624939 214.41134644 C-40.96687615 213.56968906 -40.9712584 212.72803168 -40.97577345 211.86086953 C-40.98914534 209.03598756 -40.99533672 206.21113678 -41.00146484 203.38623047 C-41.00936711 201.36248128 -41.01763614 199.33873349 -41.02624512 197.31498718 C-41.05245191 190.6644322 -41.06777194 184.01387097 -41.08203125 177.36328125 C-41.08739158 175.07278566 -41.09276909 172.7822901 -41.0981636 170.49179459 C-41.11979081 160.9628167 -41.1385269 151.4338405 -41.149786 141.90484428 C-41.1660213 128.25464523 -41.19919105 114.604731 -41.25618684 100.95463932 C-41.29490704 91.35363254 -41.3144212 81.75270188 -41.31970656 72.15161908 C-41.32335727 66.41901298 -41.33534916 60.68671077 -41.3678093 54.9541893 C-41.39792601 49.55818447 -41.40418868 44.16266683 -41.39242554 38.76659584 C-41.3922051 36.79055399 -41.40048502 34.8144893 -41.41807938 32.83852577 C-41.59402197 11.93424513 -41.59402197 11.93424513 -34.06844139 3.80351067 C-24.81686543 -5.00988609 -11.11187327 -6.46209434 0 0 Z " fill="#ffffff" transform="translate(325.80859375,134.31640625)"/>
</svg>
