<?xml version="1.0" encoding="UTF-8"?>
<svg version="1.1" xmlns="http://www.w3.org/2000/svg" width="512" height="512">
<path d="M0 0 C8.68627114 5.23363459 14.19911672 12.5416401 16.73254299 22.5160017 C17.27623439 25.97194901 17.32520114 29.36863861 17.33009338 32.85725403 C17.33750035 33.98459734 17.33750035 33.98459734 17.34505695 35.13471526 C17.36039124 37.64815761 17.36878151 40.1615745 17.37719727 42.67504883 C17.38677899 44.47872134 17.39678924 46.28239163 17.40719604 48.08605957 C17.43421927 52.98022121 17.45524283 57.87439247 17.47519803 62.76858735 C17.4970735 67.88421011 17.52445456 72.99980331 17.55125427 78.11540222 C17.60116003 87.80148659 17.64610673 97.48758738 17.68927664 107.17370385 C17.73866709 118.20144087 17.79357852 129.22914823 17.84895623 140.25685656 C17.96274379 162.94074128 18.06958987 185.62465446 18.171875 208.30859375 C18.56054245 207.70136978 18.9492099 207.09414581 19.34965515 206.46852112 C19.87195206 205.66623581 20.39424896 204.8639505 20.93237305 204.03735352 C21.4447905 203.24450455 21.95720795 202.45165558 22.4851532 201.63478088 C27.2228779 195.10090302 34.38345077 190.54631456 40.859375 185.87109375 C47.86188167 180.7657907 54.79292544 175.5791627 61.671875 170.30859375 C69.05797891 164.65465624 76.50382817 159.09388558 84.0078125 153.59765625 C89.94858933 149.23582343 95.8194076 144.78804827 101.671875 140.30859375 C109.05829292 134.6550598 116.50381966 129.09389181 124.0078125 123.59765625 C129.94858933 119.23582343 135.8194076 114.78804827 141.671875 110.30859375 C149.05829292 104.6550598 156.50381966 99.09389181 164.0078125 93.59765625 C169.94858933 89.23582343 175.8194076 84.78804827 181.671875 80.30859375 C189.05829292 74.6550598 196.50381966 69.09389181 204.0078125 63.59765625 C209.94858933 59.23582343 215.8194076 54.78804827 221.671875 50.30859375 C229.05664818 44.65631867 236.49926924 39.09461619 244.00341797 33.60205078 C249.99437088 29.20569544 255.90117346 24.70658078 261.796875 20.18359375 C268.30387282 15.21061512 274.83409584 10.2763993 281.484375 5.49609375 C282.14711426 5.01060059 282.80985352 4.52510742 283.49267578 4.02490234 C292.60997283 -2.44566218 302.05476389 -4.3865394 313.171875 -2.69140625 C322.49830001 0.28040375 329.98991313 5.78615599 334.546875 14.49609375 C336.84252726 19.39681227 337.29805285 23.58470325 337.30609608 29.00418282 C337.30844831 29.67946333 337.31080054 30.35474384 337.31322405 31.0504874 C337.31990529 33.32364222 337.31945609 35.59673976 337.31904602 37.86990356 C337.32234519 39.51202509 337.32607087 41.1541458 337.3301875 42.79626548 C337.34020957 47.31715112 337.34392463 51.83802349 337.34657681 56.35891867 C337.35047923 61.23161986 337.3600576 66.10431053 337.36878967 70.977005 C337.38855557 82.74856738 337.39862034 94.52013061 337.40751746 106.29170543 C337.41190006 111.83425027 337.41726693 117.37679415 337.42250633 122.91933823 C337.43951855 141.34236261 337.45401303 159.7653864 337.46125507 178.18841743 C337.46316499 182.96968715 337.46508532 187.75095686 337.46704102 192.53222656 C337.46752476 193.72059675 337.4680085 194.90896693 337.4685069 196.13334833 C337.47680834 215.38691717 337.50214723 234.6404239 337.53462169 253.89396562 C337.56768572 273.65805868 337.58570323 293.42212017 337.58889931 313.18624103 C337.59106499 324.28432686 337.59982214 335.38232212 337.62536049 346.48038101 C337.64705846 355.93141066 337.65512231 365.38232773 337.64539371 374.83337946 C337.64084645 379.65486856 337.64276009 384.47612534 337.66215515 389.29758263 C337.67976902 393.71442163 337.67880353 398.13085853 337.66325786 402.5477017 C337.6608791 404.14263999 337.6652193 405.73760599 337.67708651 407.3325019 C337.76420306 419.81729181 336.18136016 429.04857671 327.39453125 438.328125 C320.59620266 444.38568668 314.00427428 446.44636009 305.046875 446.62109375 C303.80679687 446.65847656 302.56671875 446.69585937 301.2890625 446.734375 C292.37782666 446.26484294 285.39079536 441.43945564 278.734375 435.93359375 C277.16063071 434.6709596 275.58505116 433.41061012 274.0078125 432.15234375 C273.20827148 431.51167969 272.40873047 430.87101562 271.58496094 430.2109375 C267.74839365 427.18639963 263.8074612 424.31009775 259.859375 421.43359375 C253.06934916 416.4693102 246.35036512 411.4219182 239.671875 406.30859375 C233.05249226 401.24196565 226.39684293 396.23423916 219.671875 391.30859375 C212.04447483 385.72196955 204.51542935 380.01583037 197.0078125 374.26953125 C191.27284773 369.88795049 185.49427937 365.57316417 179.671875 361.30859375 C172.04447483 355.72196955 164.51542935 350.01583037 157.0078125 344.26953125 C151.27284773 339.88795049 145.49427937 335.57316417 139.671875 331.30859375 C132.04447483 325.72196955 124.51542935 320.01583037 117.0078125 314.26953125 C111.27284773 309.88795049 105.49427937 305.57316417 99.671875 301.30859375 C92.04447483 295.72196955 84.51542935 290.01583037 77.0078125 284.26953125 C71.27284044 279.88794492 65.49405393 275.57347995 59.671875 271.30859375 C52.70831666 266.20296578 45.79664846 261.03322914 38.921875 255.80859375 C38.05240234 255.14988281 37.18292969 254.49117188 36.28710938 253.8125 C33.90196819 251.99436432 31.53303959 250.15772352 29.171875 248.30859375 C28.50478516 247.79554688 27.83769531 247.2825 27.15039062 246.75390625 C26.54388672 246.26664063 25.93738281 245.779375 25.3125 245.27734375 C24.79719727 244.86935547 24.28189453 244.46136719 23.75097656 244.04101562 C21.36866558 241.42739801 19.89987522 238.39115843 18.171875 235.30859375 C18.16856485 236.24343062 18.16525471 237.1782675 18.16184425 238.14143276 C18.0808024 260.90200724 17.98847227 283.66251467 17.88434792 306.42299557 C17.83425446 317.42985079 17.78781114 328.43669868 17.75 339.44360352 C17.71702944 349.03869811 17.67717021 358.63373531 17.62908494 368.2287665 C17.60387034 373.30789818 17.58207419 378.38699203 17.56853104 383.46616936 C17.55566495 388.25056704 17.53356167 393.03483465 17.50449181 397.81916046 C17.49545152 399.57144066 17.48973412 401.32374179 17.48766136 403.07604408 C17.45380097 427.36172576 17.45380097 427.36172576 8.41796875 437.22265625 C1.38482317 443.90059246 -5.5990326 446.50467452 -15.265625 446.80859375 C-25.75005 446.47072708 -33.33573605 443.76507046 -40.94921875 436.46484375 C-46.41800317 430.18881672 -47.95029267 423.74508461 -47.96234608 415.57897663 C-47.96469831 414.90001977 -47.96705054 414.22106292 -47.96947405 413.52153161 C-47.97615558 411.23588076 -47.97570608 408.95028687 -47.97529602 406.66462708 C-47.97859517 405.01354326 -47.98232084 403.36246025 -47.9864375 401.71137828 C-47.99645973 397.16575888 -48.00017465 392.62015269 -48.00282681 388.07452381 C-48.00672915 383.17525666 -48.01630749 378.27599997 -48.02503967 373.3767395 C-48.04480521 361.54140732 -48.05487004 349.70607428 -48.06376746 337.87072971 C-48.06814988 332.29866815 -48.07351678 326.72660755 -48.07875633 321.15454674 C-48.09576808 302.63458484 -48.11026288 284.11462354 -48.11750507 265.59465504 C-48.119415 260.78828239 -48.12133533 255.98190974 -48.12329102 251.17553711 C-48.12377476 249.98092339 -48.1242585 248.78630966 -48.1247569 247.55549552 C-48.13305957 228.19778687 -48.15840075 208.84013996 -48.19087169 189.48245827 C-48.22392925 169.61327889 -48.24195262 149.74413091 -48.24514931 129.87492388 C-48.24731553 118.7170664 -48.2560806 107.55929898 -48.28161049 96.40146828 C-48.30329959 86.90027121 -48.31137668 77.39918609 -48.30164371 67.89796708 C-48.29709394 63.05027391 -48.29902462 58.20281181 -48.31840515 53.35515022 C-48.33600107 48.91554225 -48.33506816 44.47633452 -48.31950786 40.0367225 C-48.31712637 38.43238084 -48.32148339 36.82801171 -48.33333651 35.22371206 C-48.41599709 23.29492699 -46.97451884 14.98672346 -38.6875 6.09765625 C-28.47459649 -3.72904503 -12.97521112 -6.29167116 0 0 Z " fill="#ffffff" transform="translate(111.828125,34.69140625)"/>
</svg>
