<?xml version="1.0" encoding="UTF-8"?>
<svg version="1.1" xmlns="http://www.w3.org/2000/svg" width="512" height="512">
<path d="M0 0 C3.30250674 2.65176962 6.24757892 5.59176668 9.21292114 8.61164856 C10.08309494 9.47755023 10.95326874 10.3434519 11.84981143 11.23559302 C14.24217897 13.62118875 16.62290419 16.01738531 18.99922705 18.41889894 C21.57210784 21.01349064 24.15954659 23.59349558 26.74519348 26.175354 C31.21621933 30.64376556 35.67804178 35.12119721 40.13364029 39.60499001 C46.57558501 46.08767153 53.03138867 52.55640602 59.49059425 59.02188393 C69.97131658 69.51353349 80.44083799 80.01628641 90.90332031 90.52612305 C101.06312964 100.73186867 111.22820784 110.93231886 121.40039062 121.12573242 C122.34183387 122.0691461 122.34183387 122.0691461 123.30229618 123.03161863 C126.45114264 126.18699056 129.60009269 129.34225908 132.74909425 132.49747622 C158.84880824 158.64897427 184.93034759 184.81853605 211 211 C214.14990288 209.60449276 216.27413351 207.97287968 218.69984722 205.5378685 C219.42332401 204.81652371 220.1468008 204.09517892 220.89220113 203.3519752 C221.67983698 202.55646731 222.46747283 201.76095941 223.27897644 200.94134521 C224.12133939 200.09857442 224.96370233 199.25580363 225.83159143 198.38749433 C228.16895096 196.04704673 230.50173125 193.70219686 232.83272994 191.35542417 C235.34793547 188.82542007 237.86895788 186.30122454 240.38934326 183.77638245 C244.75710025 179.39943678 249.12134175 175.01901116 253.4833889 170.63637543 C259.79847061 164.29176234 266.12049763 157.95410561 272.44453339 151.61841884 C282.71543362 141.32849842 292.98296056 131.03521995 303.24731445 120.73876953 C303.86174891 120.12241714 304.47618337 119.50606475 305.10923705 118.87103501 C311.95962036 111.99911908 318.80918613 105.12638916 325.65783691 98.25274658 C328.13882549 95.76272689 330.61982131 93.27271442 333.10083008 90.78271484 C333.71299864 90.16832463 334.3251672 89.55393441 334.95588633 88.9209263 C345.17385193 78.66620239 355.39766795 68.41733299 365.62606317 58.17301202 C371.93189808 51.85685712 378.23265705 45.53572076 384.52692202 39.20803556 C388.84415747 34.86861547 393.16680135 30.53463257 397.49368718 26.20483509 C399.98776013 23.70871913 402.47932286 21.21022707 404.96427345 18.70502663 C407.66339004 15.9840201 410.37418319 13.27483631 413.08610535 10.56658936 C413.86258759 9.78000435 414.63906984 8.99341934 415.43908185 8.18299842 C423.93551427 -0.25875634 430.85089788 -5.33572461 443.09375 -5.3828125 C450.49928718 -5.21224351 455.68948314 -3.06346337 461.09375 1.9375 C466.50577875 7.79313766 468.36882794 12.68338947 468.4375 20.6875 C468.47037109 21.34427734 468.50324219 22.00105469 468.53710938 22.67773438 C468.62418521 30.870779 464.54239384 37.6422835 459.08949566 43.52574348 C457.53519362 45.1008166 455.96726628 46.66252181 454.38835144 48.21292114 C453.52244977 49.08309494 452.6565481 49.95326874 451.76440698 50.84981143 C449.37881125 53.24217897 446.98261469 55.62290419 444.58110106 57.99922705 C441.98650936 60.57210784 439.40650442 63.15954659 436.824646 65.74519348 C432.35623444 70.21621933 427.87880279 74.67804178 423.39500999 79.13364029 C416.91232847 85.57558501 410.44359398 92.03138867 403.97811607 98.49059425 C393.48646651 108.97131658 382.98371359 119.44083799 372.47387695 129.90332031 C362.26813133 140.06312964 352.06768114 150.22820784 341.87426758 160.40039062 C340.9308539 161.34183387 340.9308539 161.34183387 339.96838137 162.30229618 C336.81300944 165.45114264 333.65774092 168.60009269 330.50252378 171.74909425 C304.35102573 197.84880824 278.18146395 223.93034759 252 250 C253.40047045 253.16652283 255.04706424 255.29265165 257.49615955 257.72828865 C258.22508783 258.45811553 258.95401611 259.18794241 259.70503312 259.93988526 C260.50900504 260.73462089 261.31297695 261.52935652 262.14131165 262.34817505 C262.99295511 263.19799953 263.84459857 264.04782402 264.72204942 264.92340076 C267.08724108 267.28162743 269.45683109 269.63527391 271.82832086 271.98715687 C274.38491758 274.52484422 276.93568507 277.06837807 279.48706055 279.61131287 C283.90998254 284.01822051 288.33627067 288.42172344 292.76458168 292.82321548 C299.76716001 299.78387419 306.75994566 306.75432478 313.75126648 313.72628784 C316.14399029 316.11213153 318.53678997 318.49789911 320.9296217 320.88363457 C321.52763713 321.47987835 322.12565256 322.07612212 322.74178967 322.6904339 C329.54959231 329.47774007 336.35971863 336.2627129 343.1706543 343.046875 C343.79325023 343.66702838 344.41584616 344.28718175 345.05730864 344.92612766 C355.14043664 354.96927379 365.22947823 365.00646415 375.31983731 375.04234435 C385.68335646 385.35039011 396.0372042 395.66808557 406.38301057 405.99390876 C412.76198673 412.35982398 419.14882715 418.71763893 425.54607179 425.06519644 C429.93283933 429.4191926 434.31043453 433.78227207 438.68100587 438.15252538 C441.20083235 440.67158696 443.72452571 443.1864191 446.25942802 445.69031715 C449.01254262 448.40994776 451.74587682 451.14893529 454.47773743 453.8899231 C455.27501717 454.6712744 456.07229692 455.4526257 456.89373666 456.25765431 C462.65910707 462.09127659 467.81749581 468.73410975 468.6640625 477.16015625 C468.5724375 486.3134939 467.78721567 492.86028151 461.35546875 499.765625 C454.00997675 506.59709837 447.45609301 507.59928491 437.578125 507.328125 C421.33170441 505.83827857 406.42636264 484.56662562 395.61407161 473.73013723 C393.15801744 471.26971267 390.69902015 468.81223231 388.24040222 466.35437012 C383.99425261 462.10874161 379.7499191 457.86130477 375.50685883 453.61258888 C369.37231123 447.46986986 363.23496205 441.32995614 357.09695354 435.19069561 C347.13542896 425.22698932 337.17613362 415.26105791 327.21826172 405.29370117 C317.55245017 395.61869262 307.88557548 385.94474832 298.21728516 376.2722168 C297.32143501 375.37597257 297.32143501 375.37597257 296.40748689 374.46162239 C293.41095344 371.46378379 290.41439926 368.46596593 287.41783476 365.46815836 C262.60867368 340.64865214 237.80313951 315.82552378 213 291 C209.83347717 292.40047045 207.70734835 294.04706424 205.27171135 296.49615955 C204.54188447 297.22508783 203.81205759 297.95401611 203.06011474 298.70503312 C202.26537911 299.50900504 201.47064348 300.31297695 200.65182495 301.14131165 C199.80200047 301.99295511 198.95217598 302.84459857 198.07659924 303.72204942 C195.71837257 306.08724108 193.36472609 308.45683109 191.01284313 310.82832086 C188.47515578 313.38491758 185.93162193 315.93568507 183.38868713 318.48706055 C178.98177949 322.90998254 174.57827656 327.33627067 170.17678452 331.76458168 C163.21612581 338.76716001 156.24567522 345.75994566 149.27371216 352.75126648 C146.88786847 355.14399029 144.50210089 357.53678997 142.11636543 359.9296217 C141.52012165 360.52763713 140.92387788 361.12565256 140.3095661 361.74178967 C133.52225993 368.54959231 126.7372871 375.35971863 119.953125 382.1706543 C119.33297162 382.79325023 118.71281825 383.41584616 118.07387234 384.05730864 C108.03072621 394.14043664 97.99353585 404.22947823 87.95765565 414.31983731 C77.64960989 424.68335646 67.33191443 435.0372042 57.00609124 445.38301057 C50.64017602 451.76198673 44.28236107 458.14882715 37.93480356 464.54607179 C33.5808074 468.93283933 29.21772793 473.31043453 24.84747462 477.68100587 C22.32841304 480.20083235 19.8135809 482.72452571 17.30968285 485.25942802 C14.59005224 488.01254262 11.85106471 490.74587682 9.1100769 493.47773743 C8.3287256 494.27501717 7.5473743 495.07229692 6.74234569 495.89373666 C0.75201814 501.81397893 -5.47571366 506.23087132 -13.90625 507.6640625 C-22.98982815 507.56532795 -29.91842326 506.55179534 -36.8359375 500.35546875 C-43.43059483 493.23002193 -44.52904042 486.83505126 -44.27734375 477.30078125 C-43.3001959 465.67134556 -33.20709963 456.90790134 -25.33766174 449.09715271 C-24.49046898 448.2482511 -23.64327622 447.39934949 -22.77041095 446.52472359 C-20.44109323 444.19270018 -18.10739061 441.8651754 -15.77168477 439.53955352 C-13.24530142 437.02186306 -10.72475816 434.49833715 -8.20347595 431.97554016 C-3.8420894 427.61310842 0.52292376 423.25433337 4.8904705 418.89806938 C11.20508687 412.599755 17.51412793 406.29587975 23.8218521 399.99066377 C34.05758001 389.75930561 44.29775981 379.53241533 54.54077148 369.30834961 C64.48680877 359.38068979 74.43072882 349.4509171 84.37182617 339.51831055 C84.9853082 338.90535397 85.59879022 338.29239739 86.23086261 337.66086637 C89.3087213 334.58561789 92.3865386 331.51032797 95.46433532 328.43501747 C120.96980969 302.95025316 146.48252287 277.47274585 172 252 C170.60449276 248.85009712 168.97287968 246.72586649 166.5378685 244.30015278 C165.81652371 243.57667599 165.09517892 242.8531992 164.3519752 242.10779887 C163.55646731 241.32016302 162.76095941 240.53252717 161.94134521 239.72102356 C161.09857442 238.87866061 160.25580363 238.03629767 159.38749433 237.16840857 C157.04704673 234.83104904 154.70219686 232.49826875 152.35542417 230.16727006 C149.82542007 227.65206453 147.30122454 225.13104212 144.77638245 222.61065674 C140.39943678 218.24289975 136.01901116 213.87865825 131.63637543 209.5166111 C125.29176234 203.20152939 118.95410561 196.87950237 112.61841884 190.55546661 C102.32849842 180.28456638 92.03521995 170.01703944 81.73876953 159.75268555 C81.12241714 159.13825109 80.50606475 158.52381663 79.87103501 157.89076295 C72.99911908 151.04037964 66.12638916 144.19081387 59.25274658 137.34216309 C56.76272689 134.86117451 54.27271442 132.38017869 51.78271484 129.89916992 C51.16832463 129.28700136 50.55393441 128.6748328 49.9209263 128.04411367 C39.66620239 117.82614807 29.41733299 107.60233205 19.17301202 97.37393683 C12.85685712 91.06810192 6.53572076 84.76734295 0.20803556 78.47307798 C-4.13138453 74.15584253 -8.46536743 69.83319865 -12.79516491 65.50631282 C-15.29128087 63.01223987 -17.78977293 60.52067714 -20.29497337 58.03572655 C-23.0159799 55.33660996 -25.72516369 52.62581681 -28.43341064 49.91389465 C-29.61328816 48.74917129 -29.61328816 48.74917129 -30.81700158 47.56091815 C-38.76630351 39.5601282 -44.04390499 32.86144998 -44.375 21.375 C-44.30221036 13.59459589 -42.57112376 7.99524772 -37.35546875 2.16015625 C-26.3505519 -8.00013945 -12.29166861 -7.50521622 0 0 Z " fill="#ffffff" transform="translate(44,5)"/>
</svg>
