<?xml version="1.0" encoding="UTF-8"?>
<svg version="1.1" xmlns="http://www.w3.org/2000/svg" width="512" height="512">
<path d="M0 0 C0.82896706 -0.00205263 1.65793412 -0.00410527 2.51202139 -0.0062201 C5.31395843 -0.01191366 8.11584667 -0.01042996 10.91778851 -0.00901413 C12.93725427 -0.01159641 14.95671953 -0.01460919 16.97618407 -0.01801753 C22.54459606 -0.02610679 28.11299517 -0.02787817 33.68141234 -0.028615 C39.67948894 -0.0304622 45.6775588 -0.0380078 51.67563152 -0.04475021 C65.48401241 -0.05905673 79.29239151 -0.0648617 93.10077798 -0.06944216 C99.92211796 -0.07177707 106.7434571 -0.07537959 113.56479642 -0.07913754 C136.90813853 -0.0919734 160.25148018 -0.1026929 183.59482574 -0.10614014 C185.06049724 -0.10636177 186.52616873 -0.10658355 187.99184022 -0.10680549 C189.46108008 -0.10702613 190.93031994 -0.10724661 192.3995598 -0.10746694 C195.34717961 -0.10790949 198.29479943 -0.10835661 201.24241924 -0.10880661 C201.97325895 -0.108916 202.70409866 -0.10902539 203.45708502 -0.1091381 C227.16099791 -0.1127697 250.86488023 -0.12869347 274.56878141 -0.15199697 C299.62133489 -0.1765814 324.6738709 -0.19031232 349.72643679 -0.19150805 C352.47544905 -0.19167951 355.2244613 -0.19189494 357.97347355 -0.19214249 C358.98882309 -0.19222614 358.98882309 -0.19222614 360.02468475 -0.19231148 C370.927502 -0.1934631 381.83028794 -0.20449441 392.73309461 -0.21902954 C403.68735011 -0.23338099 414.64157067 -0.23638623 425.59583382 -0.22858956 C431.53269364 -0.22467238 437.46944787 -0.22566464 443.40629482 -0.23964691 C448.83754234 -0.2523218 454.26860422 -0.25124501 459.69985124 -0.2390562 C461.66822852 -0.23708804 463.63661866 -0.24022883 465.60497782 -0.24890056 C468.2744415 -0.25991962 470.94324151 -0.25255727 473.61268616 -0.24050903 C474.76695062 -0.25190182 474.76695062 -0.25190182 475.94453356 -0.26352477 C480.70504409 -0.21693682 483.95463637 0.60765151 487.99510479 3.13142776 C493.54548001 9.28184355 493.39880157 13.78397683 493.12291455 21.89139128 C492.66904164 29.84611914 491.38861763 37.74912414 490.28880596 45.63386917 C489.99732433 47.77396504 489.70665164 49.91417123 489.41672039 52.05447769 C488.63182344 57.8302752 487.83520977 63.60439946 487.03602672 69.37823534 C486.19862919 75.4402769 485.37092478 81.50364291 484.54181194 87.56682205 C483.14861062 97.74388999 481.74788191 107.91990002 480.3425169 118.09529495 C478.7208172 129.83763757 477.11051418 141.58149958 475.50642699 153.32626021 C473.95892314 164.65509393 472.40385706 175.98287689 470.84519672 187.31018066 C470.18382123 192.11735721 469.52497284 196.92486992 468.86817265 201.73267365 C468.09373599 207.39874881 467.31262324 213.06386563 466.52647114 218.7283268 C466.24000938 220.79995535 465.95576822 222.87189245 465.67398357 224.94416237 C460.85276584 260.36377555 460.85276584 260.36377555 446.01072979 272.37752151 C436.28795532 278.0323476 426.97743542 278.70856199 415.97838116 278.63936234 C414.37217409 278.64397796 412.76597126 278.65033531 411.15977716 278.65827131 C406.77053824 278.67489695 402.38164929 278.66674925 397.99240947 278.65432644 C393.24931158 278.64525044 388.50627253 278.6592583 383.76318645 278.67024612 C374.48115239 278.68800875 365.19924788 278.68420141 355.91720879 278.67259556 C348.3717878 278.66355263 340.82640306 278.66234096 333.2809782 278.66669083 C331.66855443 278.66761022 331.66855443 278.66761022 330.02355644 278.6685482 C327.83964335 278.66982713 325.65573027 278.67112398 323.4718172 278.67243856 C303.00554419 278.68383775 282.53934291 278.67074102 262.07308167 278.6492371 C244.5218256 278.63136673 226.97067536 278.63447102 209.4194212 278.65291214 C189.02510445 278.67433051 168.63085053 278.68273918 148.23652411 278.67046309 C146.06075987 278.66918892 143.88499563 278.66793144 141.70923138 278.66669083 C140.10356208 278.66576517 140.10356208 278.66576517 138.46545503 278.66482082 C130.93133182 278.66137083 123.39724855 278.66718871 115.86313152 278.67660904 C106.67834558 278.68784113 97.49369633 278.68476349 88.30892599 278.66348606 C83.62499398 278.65299198 78.94128969 278.64882581 74.2573595 278.66208267 C69.96531622 278.67404644 65.67371064 278.66737872 61.38170677 278.64617246 C59.83340226 278.64172323 58.28506037 278.64393474 56.73678011 278.65367562 C43.38587685 278.7311948 32.8958162 276.56424166 22.99510479 267.13142776 C11.72518829 255.52676127 10.78683821 239.89013906 8.6953001 224.6123848 C8.39024284 222.44603207 8.08421134 220.27981635 7.77728558 218.11372757 C6.95085987 212.25975629 6.1387155 206.4038872 5.32972717 200.54748392 C4.47865115 194.40047595 3.61610033 188.25507655 2.75529766 182.10942459 C1.21938976 171.12965517 -0.30531654 160.14836362 -1.8253639 149.16638838 C-3.38253056 137.91864789 -4.9556411 126.67320335 -6.53435493 115.42846787 C-8.14609549 103.94582361 -9.74695825 92.46168745 -11.34300709 80.97685242 C-12.02045981 76.10351479 -12.70170619 71.23073028 -13.38608265 66.35836029 C-14.19269519 60.61227633 -14.98973288 54.86494085 -15.77962399 49.11653519 C-16.06979409 47.01594463 -16.36316274 44.91579285 -16.66009045 42.81614685 C-20.94903733 12.44626089 -20.94903733 12.44626089 -17.25489521 6.44392776 C-11.79459641 0.831954 -7.69429097 -0.01753283 0 0 Z M156.99510479 66.13142776 C156.3828001 66.67025589 155.77049541 67.20908401 155.13963604 67.76424026 C139.55441827 81.95855759 132.13084695 104.18057287 131.06956768 124.69099808 C130.31049232 148.13040458 138.89926563 170.66960464 154.73729229 187.84236526 C170.2806931 203.91170592 191.19071825 214.62343741 213.78026104 215.33455276 C235.67544791 215.65909434 255.34023886 210.8399119 272.99510479 197.13142776 C276.25895881 198.56069365 278.40736873 200.30428699 280.90574932 202.83089066 C281.65978039 203.58830048 282.41381145 204.3457103 283.19069195 205.12607193 C283.99497631 205.94381592 284.79926067 206.76155991 285.62791729 207.60408401 C286.46096386 208.44233215 287.29401043 209.28058029 288.15230083 210.14422989 C290.81302006 212.82276622 293.46696073 215.50788952 296.12010479 218.19392776 C298.7812497 220.882658 301.44382278 223.56993355 304.10933208 226.25433731 C305.76811099 227.92540696 307.42420997 229.59914176 309.0774107 231.27573013 C309.82513744 232.02998779 310.57286419 232.78424545 311.34324932 233.56135941 C312.0018092 234.2281723 312.66036907 234.8949852 313.33888531 235.58200455 C315.53748468 237.63883394 316.73622588 238.0961261 319.74510479 238.50642776 C324.20056598 237.99233609 325.96405254 236.37394877 328.99510479 233.13142776 C330.33061326 230.28515185 330.33061326 230.28515185 329.99510479 227.13142776 C327.3198779 221.70024898 324.06456229 217.77899585 319.76072979 213.56892776 C318.86544567 212.6764534 318.86544567 212.6764534 317.952075 211.76594925 C316.69486282 210.51542197 315.43407662 209.26847849 314.16990948 208.02498245 C312.25752471 206.14364605 310.3559117 204.2519564 308.45604229 202.35799026 C300.19356631 194.13663164 300.19356631 194.13663164 291.34178448 186.56111526 C289.67692471 184.79363542 289.27528188 183.52796396 288.99510479 181.13142776 C290.18260479 179.11580276 290.18260479 179.11580276 291.99510479 176.88142776 C305.05625008 159.19663705 309.04741501 136.69781186 306.53416729 115.18611526 C304.04675274 101.40291229 299.32678612 88.45220714 290.99510479 77.13142776 C290.33897198 76.23037308 289.68283916 75.32931839 289.00682354 74.40095901 C274.47434366 55.56452715 253.75098757 43.88154667 230.20994854 40.44783401 C202.28280747 37.69923325 177.25453912 46.48373479 156.99510479 66.13142776 Z " fill="rgb(155, 155, 155)" transform="translate(19.004895210266113,196.86857223510742)"/>
<path d="M0 0 C1.163535 -0.00671722 2.32707001 -0.01343445 3.52586365 -0.02035522 C7.36331481 -0.03931582 11.20059087 -0.04325859 15.03808594 -0.04541016 C17.03762247 -0.05021354 19.03715904 -0.05502069 21.03669429 -0.06033099 C27.32216454 -0.07658352 33.60757755 -0.08150291 39.89306641 -0.08007812 C46.35228482 -0.07887817 52.81116832 -0.09995783 59.27030206 -0.13156545 C64.83661459 -0.15782198 70.40281838 -0.16844148 75.96919227 -0.16716731 C79.28449184 -0.16666031 82.59942888 -0.17407065 85.91468048 -0.19352341 C89.61918028 -0.21322377 93.32282884 -0.20732819 97.02734375 -0.1953125 C98.10823776 -0.20655151 99.18913177 -0.21779053 100.30278015 -0.22937012 C110.7320804 -0.14385586 120.79653535 2.69426492 128.27246094 10.29052734 C132.94998764 16.04541144 136.72688152 22.3167329 140.45214844 28.71240234 C141.29096558 30.15196289 141.29096558 30.15196289 142.14672852 31.62060547 C143.24423286 33.51881978 144.33066551 35.42349388 145.40405273 37.33544922 C154.02608919 52.37441842 166.42905531 62.88034813 183.33496094 67.54052734 C193.34018618 69.59379603 203.47369946 69.43091459 213.63916016 69.41650391 C215.27631682 69.41790117 216.91347311 69.41980211 218.55062866 69.42216492 C222.05905319 69.4266384 225.5674661 69.42851748 229.0758934 69.42862701 C234.63323639 69.42977428 240.19051401 69.44266226 245.74783325 69.45819092 C246.68866914 69.46076377 247.62950502 69.46333663 248.59885108 69.46598744 C250.52173747 69.47125322 252.4446238 69.4765387 254.36751008 69.48184347 C267.29140414 69.51686035 280.21521459 69.54350455 293.13916016 69.54101562 C301.87706137 69.5394234 310.61473695 69.5555421 319.35256588 69.59172225 C323.96730585 69.61011323 328.58166934 69.61958471 333.19643784 69.6072464 C337.53876603 69.59574698 341.88042097 69.6076586 346.22266006 69.63688087 C347.80759722 69.64347856 349.39259685 69.64172894 350.97750854 69.63058281 C364.03179775 69.54645769 374.67015829 71.80864323 384.37011719 81.19287109 C399.25243562 97.60314829 394.27246094 119.02053464 394.27246094 140.29052734 C251.71246094 140.29052734 109.15246094 140.29052734 -37.72753906 140.29052734 C-39.27654746 113.95738461 -40.81008638 87.649482 -41.72753906 61.29052734 C-41.77035004 60.07073181 -41.77035004 60.07073181 -41.81402588 58.82629395 C-41.98417483 53.79346712 -42.09260814 48.76321491 -42.16503906 43.72802734 C-42.19936035 42.52380127 -42.23368164 41.3195752 -42.26904297 40.07885742 C-42.32142593 29.60450927 -39.10232014 19.04299263 -31.72753906 11.29052734 C-29.17771638 9.09903005 -26.51821378 7.16239096 -23.72753906 5.29052734 C-22.88191406 4.71302734 -22.03628906 4.13552734 -21.16503906 3.54052734 C-14.24085068 -0.0103385 -7.63592825 -0.00635542 0 0 Z " fill="rgb(155, 155, 155)" transform="translate(79.7275390625,36.70947265625)"/>
<path d="M0 0 C1.16789062 0.92619141 1.16789062 0.92619141 2.359375 1.87109375 C15.71074609 13.00470353 24.02826196 29.52403597 25.65844727 46.75952148 C27.02606608 64.98504699 22.42036116 82.13396815 10.96875 96.55859375 C-2.22141322 111.8155255 -18.50084735 120.76949597 -38.71875 122.27734375 C-56.32013195 122.7319249 -72.14304592 117.85069964 -86 107 C-86.69867188 106.46632813 -87.39734375 105.93265625 -88.1171875 105.3828125 C-100.39694944 95.39654695 -108.89809379 79.6592013 -111 64 C-112.42406832 44.34277128 -109.2378711 25.33383059 -96.01806641 10.01635742 C-82.9780953 -4.17769455 -66.74831698 -13.71093649 -47.1953125 -14.9921875 C-29.8422074 -15.03461563 -13.63170316 -11.22470662 0 0 Z " fill="rgb(155, 155, 155)" transform="translate(281,271)"/>
</svg>
