<?xml version="1.0" encoding="UTF-8"?>
<svg version="1.1" xmlns="http://www.w3.org/2000/svg" width="512" height="512">
<path d="M0 0 C2.64276645 1.31170878 4.3547886 2.97241135 6.44373524 5.06150782 C7.77763015 6.38459292 7.77763015 6.38459292 9.13847244 7.73440701 C10.12119297 8.72430504 11.10377229 9.71434329 12.08622563 10.70450652 C13.13261573 11.74815735 14.17966098 12.79115166 15.22730577 13.833543 C18.10965928 16.70528164 20.98254042 19.58633795 23.85398805 22.46897578 C26.95012982 25.57393994 30.05488152 28.67027349 33.15856755 31.76769316 C39.239013 37.83863762 45.31136634 43.91761491 51.3809891 49.99937766 C58.4433801 57.07536934 65.51337272 64.14374517 72.58362511 71.21188033 C85.19381922 83.81888275 97.79656308 96.43330719 110.3953687 109.05168974 C122.63310064 121.30843268 134.87678395 133.55919119 147.12681401 145.80364287 C160.45438276 159.12516054 173.77883992 172.44977526 187.09769285 185.78000754 C188.51647972 187.20000176 189.93526728 188.6199953 191.35405552 190.03998816 C192.05219547 190.73873165 192.75033542 191.43747513 193.46963112 192.15739266 C198.40075625 197.09240469 203.33402429 202.0252684 208.26804173 206.95738852 C214.27581454 212.96304424 220.2799231 218.97233518 226.27935913 224.98631947 C229.34313909 228.0573672 232.40851521 231.12677636 235.47820294 234.19191992 C238.28389776 236.99356216 241.08498581 239.79972332 243.88234487 242.60968793 C244.89931261 243.62960292 245.91799812 244.64780832 246.93849358 245.66419356 C248.31701817 247.03766582 249.68888508 248.41781088 251.06032765 249.79835474 C251.82671331 250.56560718 252.59309896 251.33285962 253.38270843 252.12336212 C255.00034916 253.99285185 255.00034916 253.99285185 255.00034916 255.99285185 C248.87046071 256.13871845 242.74050053 256.28091863 236.61045659 256.42009795 C234.5365415 256.46765675 232.46264693 256.51612115 230.3887769 256.56560576 C227.36221877 256.63764916 224.33559514 256.70613882 221.30894291 256.77410185 C219.97771649 256.80691252 219.97771649 256.80691252 218.6195966 256.84038603 C207.74238808 257.07729397 196.88885677 256.99285185 186.00034916 256.99285185 C186.00034916 329.92285185 186.00034916 402.85285185 186.00034916 477.99285185 C142.44034916 477.99285185 98.88034916 477.99285185 54.00034916 477.99285185 C54.00034916 421.89285185 54.00034916 365.79285185 54.00034916 307.99285185 C17.70034916 307.99285185 -18.59965084 307.99285185 -55.99965084 307.99285185 C-55.99965084 364.09285185 -55.99965084 420.19285185 -55.99965084 477.99285185 C-99.55965084 477.99285185 -143.11965084 477.99285185 -187.99965084 477.99285185 C-187.99965084 405.06285185 -187.99965084 332.13285185 -187.99965084 256.99285185 C-210.76965084 256.99285185 -233.53965084 256.99285185 -256.99965084 256.99285185 C-255.14374019 253.28103056 -253.68318544 251.42363651 -250.81353366 248.54667246 C-249.93071928 247.65679249 -249.0479049 246.76691252 -248.13833857 245.85006648 C-247.15271962 244.86669891 -246.16700322 243.88342901 -245.18119991 242.90024626 C-244.13833015 241.85292483 -243.0958923 240.80517318 -242.05385041 239.75702804 C-239.18601871 236.87499836 -236.31193751 233.99927219 -233.43677938 231.12455392 C-230.33841002 228.02453803 -227.24576014 224.91882503 -224.15231502 221.81389678 C-217.38717766 215.02590154 -210.61457567 208.24538659 -203.84052885 201.46628416 C-199.61367945 197.23617995 -195.38846543 193.00444493 -191.16360271 188.77235663 C-179.47281341 177.0620037 -167.78044778 165.35323136 -156.08132541 153.6512028 C-155.33259626 152.90228607 -154.5838671 152.15336934 -153.81244918 151.38175817 C-152.29451923 149.86346197 -150.776588 148.34516704 -149.2586555 146.82687338 C-148.12836323 145.6963069 -148.12836323 145.6963069 -146.97523677 144.54290068 C-146.22079148 143.78827484 -145.46634619 143.033649 -144.68903892 142.25615571 C-132.45086145 130.01443276 -120.22447851 117.76100302 -108.00322278 105.5023888 C-95.46486633 92.92601048 -82.91723265 80.35895303 -70.3600018 67.80141968 C-63.30594222 60.74677429 -56.25592781 53.68818854 -49.21600902 46.61942923 C-43.22463318 40.60362177 -37.22482339 34.59639129 -31.21367277 28.60034051 C-28.1445721 25.5384414 -25.07972838 22.47256829 -22.02553546 19.3957926 C-19.2332507 16.58305908 -16.42983005 13.78196445 -13.61682527 10.98995725 C-12.5976355 9.97428948 -11.58271418 8.95431799 -10.57239671 7.92982426 C-9.2055719 6.54505469 -7.82197115 5.17690227 -6.43745029 3.80982554 C-5.67149937 3.04306016 -4.90554845 2.27629478 -4.11638689 1.48629409 C-1.99965084 -0.00714815 -1.99965084 -0.00714815 0 0 Z " fill="#ffffff" transform="translate(256.9996508359909,17.007148146629333)"/>
</svg>
