<?xml version="1.0" encoding="UTF-8"?>
<svg version="1.1" xmlns="http://www.w3.org/2000/svg" width="512" height="512">
<path d="M0 0 C9.05421002 5.53232977 18.15997896 10.97204525 27.29248047 16.37402344 C37.90422428 22.65373275 48.47348319 28.99695481 59.00146484 35.41601562 C68.39090606 41.1385428 77.82986408 46.77342225 87.29248047 52.37402344 C97.90378145 58.65449201 108.47347274 64.99694844 119.00146484 71.41601562 C129.06269195 77.54797217 139.18364002 83.5750033 149.32342529 89.57598877 C159.93874593 95.86020996 170.50728588 102.21643892 181.03076172 108.65332031 C188.22976296 113.04769183 195.47547471 117.3577274 202.73925781 121.64404297 C203.75630295 122.24459 204.77334808 122.84513702 205.82121277 123.46388245 C208.31144275 124.93425608 210.80186993 126.40429453 213.29248047 127.87402344 C213.29468031 126.88922044 213.29468031 126.88922044 213.29692459 125.88452244 C213.33403333 109.88347025 213.39310164 93.88267083 213.47638321 77.88179874 C213.51613286 70.14377066 213.54854595 62.40584367 213.56347656 54.66772461 C213.57651431 47.92039066 213.60353277 41.17327954 213.64709353 34.42607111 C213.66966102 30.85593784 213.68539401 27.28607891 213.68436432 23.715868 C213.68347533 19.7227818 213.71380948 15.73050077 213.74658203 11.73754883 C213.74155167 10.56366104 213.7365213 9.38977325 213.7313385 8.18031311 C213.85862206 -1.86306468 216.5048086 -8.98384164 223.37451172 -16.33691406 C231.02645691 -23.47457373 239.19550139 -25.61416625 249.49169922 -25.37207031 C258.72420428 -24.56084602 265.72332362 -21.0370431 272.01513672 -14.27441406 C279.26367133 -5.33396106 279.73329772 3.91205047 279.68016052 15.09371948 C279.68433839 16.52908212 279.68981838 17.96444144 279.69648033 19.3997947 C279.71089444 23.32603788 279.70670292 27.25207042 279.69931352 31.17832494 C279.69457411 35.41974545 279.70709855 39.66112089 279.71733093 43.90252686 C279.73450928 52.20489652 279.73536092 60.50719046 279.73011803 68.80957328 C279.72607321 75.55936774 279.72752359 82.30913986 279.73286629 89.05893326 C279.73361471 90.02036361 279.73436313 90.98179396 279.73513423 91.97235856 C279.73666574 93.92563772 279.73820409 95.87891687 279.7397492 97.83219601 C279.75347082 116.14145987 279.74803898 134.45068098 279.73656399 152.75994386 C279.72663253 169.50028652 279.73957139 186.24051863 279.76349818 202.98084424 C279.78789663 220.18111254 279.79749518 237.38132936 279.79084545 254.58161461 C279.78735482 264.23374212 279.78957499 273.88578462 279.80709648 283.53789902 C279.82182779 291.75472004 279.82244178 299.9713962 279.80502557 308.18821441 C279.79652075 312.37798172 279.79435324 316.56749037 279.80967712 320.75724411 C279.82354984 324.59787404 279.81872833 328.43802433 279.79943789 332.2786267 C279.79391721 334.31503985 279.80792782 336.35147758 279.82279199 338.38784397 C279.73303317 349.62403675 277.47368794 358.6932033 269.57763672 366.92871094 C261.24775746 374.01978764 251.93205563 375.64625067 241.29248047 374.87402344 C231.58690449 373.18982055 225.06083427 368.17676837 218.61669922 360.97558594 C213.97079195 353.60243517 213.84976825 346.60725777 213.86010742 338.12402344 C213.84991577 336.86464462 213.83972412 335.60526581 213.82922363 334.307724 C213.80178639 330.87646558 213.79238737 327.44537286 213.78636956 324.01401901 C213.77695105 320.41984314 213.75074502 316.82578936 213.72636414 313.23168945 C213.68279065 306.43565612 213.65418765 299.63964661 213.63104075 292.84351635 C213.60393982 285.10217413 213.56003146 277.3609553 213.51475203 269.61970139 C213.42203695 253.70453895 213.3502963 237.78935325 213.29248047 221.87402344 C209.41451491 224.14031001 205.5374364 226.40810521 201.66108704 228.67715454 C200.34916113 229.44483799 199.03701572 230.21214649 197.72462463 230.97903442 C188.58994911 236.31728493 179.51105932 241.73711394 170.47998047 247.24902344 C169.7698027 247.68177582 169.05962494 248.1145282 168.32792664 248.56039429 C166.72595301 249.5368174 165.12443015 250.51397995 163.52294922 251.49121094 C155.81730947 256.18266937 148.05630928 260.77973784 140.29248047 265.37402344 C130.25538815 271.31433419 120.25068047 277.30236663 110.29248047 283.37402344 C99.65919202 289.85729131 88.96881317 296.23879686 78.25146484 302.58203125 C68.89564016 308.12107415 59.57558035 313.71398482 50.29248047 319.37402344 C39.664803 325.85387021 28.98287955 332.23708495 18.26757812 338.57095337 C11.01682642 342.85717305 3.78224457 347.16480219 -3.39501953 351.57324219 C-44.44854731 376.78366264 -44.44854731 376.78366264 -57.70751953 374.87402344 C-65.58369257 372.98103764 -71.11104724 369.66942247 -76.70751953 363.87402344 C-77.85220703 362.76027344 -77.85220703 362.76027344 -79.02001953 361.62402344 C-85.95160156 350.32811199 -84.85760612 335.07593202 -84.8412323 322.32099915 C-84.84349786 321.00783681 -84.84576341 319.69467447 -84.84809762 318.34171933 C-84.85416326 314.73033878 -84.85408827 311.11898156 -84.85290325 307.50759709 C-84.8526979 303.5994673 -84.85823066 299.69134474 -84.86296082 295.78321838 C-84.87123907 288.13900624 -84.87401437 280.49480181 -84.87457319 272.85058556 C-84.87504969 266.63200433 -84.87711107 260.41342563 -84.88027382 254.1948452 C-84.8890726 236.53317382 -84.8936944 218.8715085 -84.89294335 201.20983491 C-84.89290339 200.25927347 -84.89286343 199.30871203 -84.89282227 198.3293457 C-84.89278138 197.37761304 -84.8927405 196.42588038 -84.89269838 195.44530734 C-84.89229211 180.02841222 -84.90185899 164.61154154 -84.91596063 149.19465349 C-84.93035238 133.33446572 -84.93722928 117.47428985 -84.93636686 101.61409539 C-84.93603586 92.72196589 -84.9387402 83.82986201 -84.94954491 74.93773842 C-84.9586868 67.36605282 -84.96079503 59.79440447 -84.95403548 52.22271571 C-84.95078883 48.36641777 -84.95064576 44.51019114 -84.95938873 40.65390015 C-85.05731231 -5.50321525 -85.05731231 -5.50321525 -75.02001953 -16.43847656 C-51.80548457 -38.22108694 -20.99331241 -12.83047095 0 0 Z " fill="#ffffff" transform="translate(158.70751953125,81.1259765625)"/>
</svg>
